<svg xmlns="http://www.w3.org/2000/svg" width="49" height="55" fill="none"><path d="M4.274 0A3.771 3.771 0 00.508 3.766v47.47A3.77 3.77 0 004.274 55h2.151V0h-2.15zm40.452 0h-3.42v11.932c0 .89-.456 1.69-1.222 2.143a2.486 2.486 0 01-1.27.352c-.409 0-.82-.104-1.198-.31l-3.697-2.03-3.697 2.03a2.47 2.47 0 01-2.468-.042 2.47 2.47 0 01-1.223-2.143V0H9.85v55h34.877a3.77 3.77 0 003.766-3.765V3.765A3.771 3.771 0 0044.726 0z" fill="#fff"/><path d="M29.955.051v10.306L32.72 8.84a2.496 2.496 0 012.398 0l2.765 1.518V.051h-7.928z" fill="#fff"/></svg>