<svg xmlns="http://www.w3.org/2000/svg" width="55" height="41" fill="none"><path d="M33.038 20.793c-.2-.188-.493-.282-.877-.282h-1.297v2.437h1.297c.384 0 .676-.094.877-.282.201-.188.302-.5.302-.937 0-.436-.1-.749-.302-.936zM0 5.11v30.78a4.33 4.33 0 004.325 4.324h6.5V.786h-6.5A4.33 4.33 0 000 5.11zM50.675.786H14.05v6.44H55V5.11A4.33 4.33 0 0050.675.786z" fill="#fff"/><path d="M14.05 10.45v29.764h36.625A4.33 4.33 0 0055 35.89V10.45H14.05zm10.54 16.152c.244 0 .447-.04.608-.118a.698.698 0 00.348-.36 2.2 2.2 0 00.137-.4 4.25 4.25 0 00.059-.432c.035-.41.371-.616 1.009-.616.375 0 .641.068.799.203.157.136.235.391.235.767 0 .847-.307 1.515-.923 2.004-.616.49-1.404.734-2.364.734-.935 0-1.693-.25-2.273-.747-.581-.498-.871-1.28-.871-2.345v-3.471c0-1.066.29-1.847.87-2.345.581-.498 1.339-.746 2.274-.746.96 0 1.748.231 2.364.694.616.463.923 1.1.923 1.912 0 .376-.078.631-.235.767-.158.135-.42.203-.786.203-.655 0-.996-.205-1.022-.616-.026-.786-.415-1.179-1.166-1.179-.786 0-1.179.437-1.179 1.31v3.471c0 .873.398 1.31 1.192 1.31zm10.46 1.44c-.276.228-.566.341-.872.341-.306 0-.524-.126-.655-.38l-1.794-3.484h-.865v3.157c0 .201-.1.356-.301.465-.201.11-.441.164-.72.164-.28 0-.52-.055-.721-.164-.201-.109-.302-.264-.302-.465v-8.331c0-.166.06-.31.177-.432a.6.6 0 01.452-.183h2.712c2.148 0 3.222.934 3.222 2.803 0 1.362-.528 2.249-1.585 2.659l1.598 2.895c.044.061.066.14.066.236 0 .253-.138.493-.413.72zm9.03.1c-.2.108-.44.163-.72.163-.28 0-.52-.055-.72-.164-.201-.109-.301-.264-.301-.465v-4.912l-1.258 2.148c-.149.254-.376.38-.681.38-.297 0-.511-.127-.642-.38l-1.245-2.28v5.044c0 .201-.1.356-.3.465-.202.11-.442.164-.721.164-.28 0-.52-.055-.72-.164-.202-.109-.302-.264-.302-.465v-7.925c0-.349.098-.607.295-.773a1.09 1.09 0 01.727-.248c.393 0 .692.058.897.176.205.118.434.4.688.845l1.349 2.358 1.35-2.358c.252-.445.482-.727.687-.845.205-.117.504-.176.897-.176.288 0 .53.083.727.248.197.166.295.424.295.773v7.925c0 .201-.1.356-.301.465z" fill="#fff"/></svg>