<svg xmlns="http://www.w3.org/2000/svg" width="55" height="55" fill="none"><path d="M53.389 0h-6.553c-.89 0-1.611.72-1.611 1.611v1.612H32.037C31.37 1.35 29.597 0 27.5 0c-2.098 0-3.87 1.351-4.537 3.223H9.775V1.61c0-.889-.72-1.61-1.61-1.61H1.61C.721 0 0 .72 0 1.611v6.446c0 .89.72 1.611 1.611 1.611h6.553c.89 0 1.611-.72 1.611-1.611V6.424h6.618c-5.592 3.493-9.28 9.63-9.72 16.501-1.933.633-3.343 2.433-3.343 4.575a4.84 4.84 0 004.834 4.834 4.84 4.84 0 004.834-4.834c0-2.056-1.296-3.804-3.109-4.502.55-7.662 5.896-14.12 13.333-15.962.804 1.555 2.41 2.632 4.278 2.632 1.868 0 3.474-1.077 4.278-2.632 7.437 1.843 12.783 8.3 13.333 15.962-1.813.698-3.109 2.446-3.109 4.502a4.84 4.84 0 004.834 4.834A4.84 4.84 0 0051.67 27.5c0-2.142-1.41-3.942-3.343-4.575-.44-6.872-4.128-12.986-9.72-16.48h6.618v1.612c0 .89.72 1.611 1.61 1.611h6.554c.89 0 1.611-.72 1.611-1.611V1.61C55 .721 54.28 0 53.389 0zM38.462 53.001c-.843-2.579-3.27-4.554-6.128-4.554h-9.668c-2.858 0-5.286 1.975-6.128 4.554-.325.995.52 1.999 1.567 1.999h18.79c1.046 0 1.892-1.004 1.567-1.999z" fill="#fff"/><path d="M41.731 33.052l-12.62-18.93v15.286c1.872.668 3.223 2.44 3.223 4.537A4.84 4.84 0 0127.5 38.78a4.84 4.84 0 01-4.834-4.834c0-2.098 1.351-3.87 3.223-4.537V14.122l-12.62 18.93a1.61 1.61 0 00.201 2.033c2.958 2.958 4.849 6.768 5.579 10.856a9.596 9.596 0 013.617-.716h9.668c1.28 0 2.498.262 3.617.716.73-4.088 2.62-7.898 5.579-10.856a1.61 1.61 0 00.201-2.033z" fill="#fff"/><path d="M27.5 32.334a1.612 1.612 0 000 3.223 1.612 1.612 0 000-3.223z" fill="#fff"/></svg>