<svg xmlns="http://www.w3.org/2000/svg" width="55" height="55" fill="none"><path d="M53.352 33.527l-5.055-3.953c.064-.61.119-1.322.119-2.076s-.053-1.467-.12-2.076l5.06-3.956c.94-.742 1.197-2.06.599-3.158l-5.258-9.095c-.561-1.027-1.792-1.554-3.04-1.094l-5.966 2.395a20.451 20.451 0 00-3.582-2.078l-.907-6.328C35.052.908 34.008 0 32.772 0h-10.54c-1.236 0-2.279.907-2.425 2.09l-.91 6.35a21.08 21.08 0 00-3.575 2.079L9.34 8.117c-1.121-.433-2.462.053-3.019 1.075l-5.264 9.107a2.464 2.464 0 00.596 3.174l5.056 3.953c-.08.772-.12 1.444-.12 2.074 0 .63.04 1.302.12 2.076l-5.06 3.956c-.94.745-1.194 2.062-.596 3.158l5.257 9.095c.561 1.025 1.78 1.556 3.04 1.093l5.966-2.394a20.658 20.658 0 003.58 2.078l.907 6.325c.15 1.206 1.192 2.113 2.43 2.113h10.541c1.235 0 2.28-.907 2.427-2.09l.91-6.348a21.185 21.185 0 003.575-2.08l5.98 2.4c.29.113.59.17.9.17a2.42 2.42 0 002.119-1.242l5.28-9.143c.587-1.073.33-2.39-.614-3.14zm-25.85 3.14c-5.055 0-9.167-4.112-9.167-9.167s4.111-9.167 9.167-9.167c5.055 0 9.167 4.112 9.167 9.167s-4.112 9.167-9.167 9.167z" fill="#fff"/></svg>