<svg xmlns="http://www.w3.org/2000/svg" width="55" height="55" fill="none"><path d="M27.5 30c8.284 0 15-6.716 15-15 0-8.284-6.716-15-15-15-8.284 0-15 6.716-15 15 0 8.284 6.716 15 15 15zm21.348 8.137c-2.364-1.212-6.128-2.912-10.63-4.127a1.244 1.244 0 00-1.502.785l-5.123 14.294-1.552-7.758 2.396-7.186c.127-.38.063-.8-.174-1.126a1.246 1.246 0 00-1.013-.519h-7.5c-.403 0-.779.193-1.013.519-.237.326-.3.746-.173 1.127l2.395 7.185-1.552 7.758-5.123-14.294a1.246 1.246 0 00-1.502-.785c-4.502 1.215-8.266 2.915-10.63 4.127C2.358 40.086 0 43.931 0 48.17V50c0 2.758 2.244 5 5 5h45c2.756 0 5-2.242 5-5v-1.83c0-4.24-2.358-8.084-6.152-10.033z" fill="#fff"/></svg>