<svg xmlns="http://www.w3.org/2000/svg" width="55" height="55" fill="none"><path d="M53.389 13.807H1.61c-.889 0-1.61.723-1.61 1.613v37.97C0 54.279.721 55 1.611 55H53.39c.889 0 1.61-.72 1.61-1.61V15.42c0-.89-.721-1.612-1.611-1.612zM36.592 35.745l-12.944 8.63a1.611 1.611 0 01-2.506-1.342V25.774a1.611 1.611 0 012.506-1.34l12.944 8.63a1.611 1.611 0 010 2.68zM48.21 6.904H6.79a1.611 1.611 0 000 3.223h41.422a1.611 1.611 0 000-3.223zM43.033 0H11.967a1.611 1.611 0 000 3.223h31.066a1.611 1.611 0 000-3.223z" fill="#fff"/></svg>