<svg xmlns="http://www.w3.org/2000/svg" width="55" height="55" fill="none"><path d="M27.5 0c-5.331 0-9.668 4.444-9.668 9.775 0 5.332 4.337 9.668 9.668 9.668 5.331 0 9.668-4.336 9.668-9.668C37.168 4.445 32.831 0 27.5 0zm3.223 19.443h-6.446c-2.273 0-4.469.588-6.465 1.587a40.432 40.432 0 019.688 4.015 40.431 40.431 0 019.688-4.015c-1.996-1-4.193-1.587-6.465-1.587zm21.054 9.668a3.223 3.223 0 00-3.222 3.223v6.445a3.223 3.223 0 006.445 0v-6.445a3.223 3.223 0 00-3.223-3.223zm-48.554 0A3.223 3.223 0 000 32.334v6.445a3.223 3.223 0 006.445 0v-6.445a3.223 3.223 0 00-3.222-3.223z" fill="#fff"/><path d="M4.834 22.666c-.89 0-1.611.72-1.611 1.611v1.612a6.452 6.452 0 016.445 6.445v6.445a6.452 6.452 0 01-6.445 6.446v1.61c0 .892.72 1.612 1.611 1.612 8.26 0 14.866 2.61 21.055 6.553V27.886c-6.217-3.564-12.901-5.22-21.055-5.22zm46.943 3.223v-1.612c0-.89-.72-1.611-1.611-1.611-8.154 0-14.838 1.656-21.055 5.22V55c6.189-3.944 12.794-6.553 21.055-6.553.89 0 1.611-.72 1.611-1.611v-1.611a6.452 6.452 0 01-6.445-6.446v-6.445a6.452 6.452 0 016.445-6.445z" fill="#fff"/></svg>