<svg xmlns="http://www.w3.org/2000/svg" width="55" height="55" fill="none"><path d="M44.854 31.326a56.432 56.432 0 00-23.507 6.15l-9.139 5.276a5.048 5.048 0 01-6.89-1.847L.674 32.863a5.05 5.05 0 011.847-6.89l7.571-4.372a.917.917 0 011.253.336l5.949 10.304a.917.917 0 001.276.322c.427-.264.544-.837.293-1.271l-5.992-10.38a.915.915 0 01.27-1.209A56.419 56.419 0 0028.74 3.413c1.538-2.44 5.123-2.375 6.57.129l12.717 22.03c1.446 2.498-.285 5.641-3.173 5.754zm1.632-15.344c.471-2.695-1.108-5.397-3.661-6.323-.803-.29-1.53.583-1.104 1.322l3.066 5.31c.43.745 1.551.54 1.7-.309zM25.326 48.42l-4.35-7.552a.917.917 0 00-1.254-.336l-5.591 3.228a.917.917 0 00-.337 1.253l4.358 7.547a2.979 2.979 0 002.586 1.491c.993 0 1.372-.335 3.496-1.561a2.983 2.983 0 001.091-4.07zM53.178 9.012a.917.917 0 10-.916-1.588l-2.372 1.37c-.812.468-.472 1.71.46 1.71.325 0 .26-.009 2.828-1.492zm-8.429-4.75l.579-2.158a.917.917 0 00-1.771-.475l-.579 2.158a.917.917 0 001.771.475zM54.97 18.8a.917.917 0 00-.649-1.122l-2.158-.579a.917.917 0 00-.475 1.771c2.361.633 2.231.61 2.397.61.404 0 .775-.27.885-.68z" fill="#fff"/></svg>