<svg width="311" height="72" viewBox="0 0 311 72" fill="none" xmlns="http://www.w3.org/2000/svg">
<path d="M310.949 59.3098C310.905 52.5734 310.59 45.3982 309.134 38.7642C308.505 35.9702 308.11 32.6202 307.568 29.797C307.298 28.3487 307.151 26.9152 306.939 25.4816C306.756 24.048 306.53 22.6217 306.142 21.1735C305.403 18.3794 304.159 15.8634 303.413 13.0035C303.23 12.2501 303.003 11.5114 302.798 10.7654C302.579 9.99006 302.439 9.41954 302.052 8.19806C301.701 7.11556 301.349 6.02575 300.998 4.93593C300.815 4.38736 300.64 3.83879 300.464 3.28291L300.332 2.86599L300.31 2.81481C300.303 2.80018 300.318 2.77092 300.252 2.78555L299.996 2.79287L299.484 2.80749L297.413 2.86599C294.837 2.93182 292.269 2.99766 289.73 3.06349C288.435 3.09275 287.155 3.122 285.875 3.15126C285.553 3.15857 285.223 3.15856 284.872 3.16588L284.375 3.1732H284.06L282.787 3.18052C279.56 3.18783 275.404 3.29755 272.449 3.24635C269.427 3.18052 266.676 3.15126 263.39 3.1732C258.474 3.19514 256.037 3.23171 261.474 3.39994C257.918 3.53891 254.179 3.56084 250.403 3.55353C246.628 3.55353 242.801 3.53159 239.07 3.58279C234.534 3.63399 229.968 3.65594 225.432 3.65594C220.895 3.65594 216.381 3.634 211.925 3.56817C208.135 3.51697 205.977 3.33411 201.674 3.34873C197.116 3.37068 192.734 3.40725 188.175 3.37068C183.156 3.3341 178.203 3.2756 173.242 3.2244C168.281 3.1732 163.306 3.11469 158.243 3.10737C149.902 3.09275 142.3 2.84406 133.988 2.80749C130.366 2.79286 126.606 2.77091 123.489 2.59537C120.803 2.43446 114.365 2.53687 111.021 2.47104C106.916 2.39058 103.112 2.20041 99.0291 2.12727C94.3098 2.04681 89.6272 1.95905 84.9372 1.87859C79.3619 1.77619 73.8085 1.63721 68.2406 1.52018C65.4602 1.46166 62.6799 1.39584 59.8923 1.33732C57.1119 1.2715 54.3316 1.20567 51.5439 1.13253C49.2392 1.0667 44.9516 0.949684 39.8446 0.803399C34.7742 0.635172 28.8404 0.466943 23.287 0.320658C20.5286 0.232888 17.8434 0.159746 15.3777 0.115861C14.1412 0.0939184 12.9632 0.0719704 11.8511 0.0646562C10.8048 0.0353993 9.82436 0.0207584 8.92441 0.00612994C5.31729 -0.0304412 2.9906 0.0939121 3.0345 0.452309C3.06376 0.759506 4.79781 1.14716 5.75629 1.48362C6.75868 1.84201 5.63923 2.17115 6.81721 2.5076C7.35132 2.6612 8.70491 2.82944 10.2487 2.99767C11.0097 3.08544 11.8511 3.15125 12.6559 3.21708C13.4607 3.28291 14.2363 3.34875 14.8875 3.40726C19.2116 3.7876 23.6894 4.1972 28.6867 4.48245C32.0011 4.67993 35.1254 4.85548 36.6838 5.16999C36.9545 5.22119 37.2838 5.27238 37.6423 5.32358C21.2822 5.03101 8.58052 4.67994 1.59311 4.25571L3.21741 4.62872C3.3857 5.26506 3.54666 5.90139 3.72226 6.54504C3.36375 5.98916 3.00523 5.44792 2.76378 4.78964C3.23936 6.33294 3.55398 8.0664 4.44661 9.33176C5.98311 15.4611 7.23426 21.5977 8.20737 27.7343C8.06836 28.3414 7.98056 29.0509 8.08299 30.0676C8.25127 31.6694 7.73179 31.4939 7.62204 32.6349C7.46107 33.9953 7.98056 36.5919 8.11957 38.0693C8.54394 41.6533 9.46584 45.72 9.27561 49.2089C8.68296 44.8423 7.95861 40.483 7.09524 36.1311C6.83184 34.7779 6.45869 31.5085 5.72703 31.3768C5.09048 31.2598 5.03926 31.5816 4.62221 30.2285C4.43929 29.6214 4.16858 28.1074 3.79543 28.2025C4.96609 36.3359 6.08554 44.2133 6.64893 52.3248C6.73673 53.6925 6.83184 55.0676 6.91964 56.45C6.99281 57.8324 7.06598 59.2147 7.14646 60.6044C7.16841 61.2993 7.19036 61.9941 7.21962 62.689L7.26353 65.3002L7.25621 67.9625L7.24889 69.2791L7.24157 69.9374V70.2665V70.347V70.3909L7.30011 70.3982L7.52692 70.4421L10.8048 70.0764L12.4364 69.9008L14.0973 69.7399L17.3971 69.4254C17.9458 69.3742 18.5019 69.3157 19.036 69.2718L20.5725 69.1621L23.6455 68.9426L25.182 68.8403C25.6942 68.8037 26.2356 68.7671 26.6161 68.7452C28.3062 68.6574 29.9891 68.5696 31.6646 68.4819C30.0257 68.6062 28.3794 68.7232 26.7185 68.8476L26.0673 68.8915L25.2991 68.9573L23.748 69.0889C22.7017 69.1767 21.6481 69.2645 20.6018 69.3596L19.0068 69.4985C18.4653 69.5424 17.858 69.6156 17.2873 69.6814C16.1167 69.8057 14.9387 69.9301 13.7607 70.0617C11.3609 70.3104 9.03416 70.6103 6.60503 70.8955L6.34894 70.8224C6.31236 70.7712 6.33431 70.6981 6.32699 70.6322L6.30504 70.2299L6.27578 69.4254C6.25383 68.8841 6.23919 68.3356 6.21724 67.787C6.18066 66.6679 6.14408 65.5415 6.11481 64.4152C6.06359 63.457 6.01969 62.4915 5.97579 61.526L5.82214 59.0465C5.65386 55.7405 5.45631 52.4418 5.39046 49.2162C5.27339 44.4985 4.21248 40.1466 3.45886 35.5386C2.56623 30.309 1.44678 25.0866 0.0858826 19.8862C-0.206784 19.9228 0.298066 22.5632 0.854132 25.4084C1.40288 28.2537 1.95163 31.311 2.01016 32.1741C2.08333 33.1908 2.20771 34.2147 2.39063 35.2387C2.57355 36.2627 2.76378 37.2794 2.9028 38.2961C3.10766 39.6931 3.27595 41.1047 3.40033 42.5164C3.53935 43.928 3.6491 45.347 3.7369 46.7513C4.02224 50.4377 4.19053 54.1314 4.28565 57.825L4.34418 60.5971L4.35149 63.6033L4.27833 67.8675L4.22711 69.9886L4.20516 71.0491L4.19784 71.5758L4.19053 71.8391C4.22711 71.9049 4.31491 71.9488 4.37344 72L8.19274 71.5831L10.1024 71.3783L12.0486 71.1808L15.9411 70.7858L17.8873 70.5883C18.2239 70.5518 18.4946 70.5372 18.7873 70.5152L19.6579 70.4494L26.5795 69.9301L31.4451 69.6448C34.5547 69.4547 37.7155 69.3157 40.847 69.1548C44.0078 69.0231 47.1539 68.8768 50.3147 68.7525C56.6437 68.5111 62.9872 68.299 69.3307 68.1088C82.0325 67.7358 94.7781 67.4505 107.582 67.2092C117.848 67.019 128.084 66.7996 138.393 66.6606C143.178 66.6021 147.282 66.6533 152.082 66.5582C157.782 66.4412 164.842 66.2949 170.505 66.3242C181.641 66.3973 194.153 66.1632 205.399 66.0901C217.617 66.017 229.88 65.9731 242.106 66.0243C252.613 66.0682 263.12 66.1413 273.605 66.2803C278.843 66.3461 284.075 66.4412 289.284 66.5509L293.411 66.6533C295.335 66.6972 297.252 66.763 299.198 66.8508L305.022 67.0995L310.802 67.3774C310.839 67.3482 310.905 67.3335 310.912 67.2896V67.158L310.92 66.902L310.927 66.3754L310.941 65.3294L310.971 63.2376L311 61.153L310.949 59.3098ZM143.185 5.92335C145.27 5.95261 147.399 5.98185 149.485 5.95259C154.511 5.89408 153.399 5.79169 151.841 5.4845C160.299 5.33821 169.752 5.59421 178.429 5.62347C183.024 5.6381 187.619 5.66002 192.229 5.67465C195.865 5.68928 198.616 5.41134 202.874 5.42597C212.086 5.44791 217.852 5.14804 225.154 4.68725C228.761 4.46051 233.604 4.41662 238.55 4.43125C243.489 4.43125 248.538 4.48976 252.576 4.49707C249.906 4.88472 243.233 4.80427 238.741 4.84084C227.312 4.89204 236.341 5.0822 241.799 5.19923C237.365 5.31626 233.297 5.39671 229.756 5.65271C237.241 5.63808 244.418 5.58689 251.786 5.63809C255.042 5.68197 266.734 5.5942 270.019 5.63809C270.971 5.65272 272.69 5.68198 274.468 5.71856C266.332 5.85021 256.659 5.95991 245.889 6.04768C242.67 6.04768 239.004 6.08425 236.641 6.11351C228.658 6.16471 220.186 6.2086 211.376 6.23786C211.998 6.19397 212.145 6.12815 211.493 6.055C210.257 5.91603 207.001 6.1062 203.621 6.14277C204.279 6.19397 205.026 6.23054 205.786 6.2598C182.505 6.32563 157.167 6.30369 132.393 6.21592C131.83 6.08426 131.288 5.95992 130.725 5.82826C134.851 5.74049 139.11 5.85752 143.185 5.92335ZM85.2738 5.78438C89.0418 5.55764 94.4049 5.7478 99.2705 5.82094L115.901 6.04036C119.925 6.09156 123.942 6.14277 127.966 6.18665C112.609 6.12083 97.5438 6.02575 83.3934 5.90141C83.9641 5.86484 84.5787 5.82827 85.2738 5.78438Z" fill="#E30B0F"/>
</svg>
