<svg width="550" height="318" viewBox="0 0 550 318" fill="none" xmlns="http://www.w3.org/2000/svg">
<path d="M125.558 294.138V295.162H117.702V294.346L122.358 289.786C122.945 289.21 123.339 288.714 123.542 288.298C123.755 287.871 123.862 287.445 123.862 287.018C123.862 286.357 123.633 285.845 123.174 285.482C122.726 285.109 122.081 284.922 121.238 284.922C119.926 284.922 118.907 285.338 118.182 286.17L117.366 285.466C117.818 284.943 118.388 284.537 119.03 284.282C119.713 284.005 120.481 283.866 121.334 283.866C122.475 283.866 123.377 284.138 124.038 284.682C124.71 285.215 125.046 285.951 125.046 286.89C125.046 287.467 124.915 288.036 124.662 288.554C124.406 289.087 123.921 289.701 123.206 290.394L119.398 294.138H125.558V294.138ZM131.485 295.258C130.621 295.258 129.848 295.029 129.165 294.57C128.493 294.111 127.965 293.455 127.581 292.602C127.208 291.738 127.021 290.725 127.021 289.562C127.021 288.399 127.208 287.391 127.581 286.538C127.965 285.674 128.493 285.013 129.165 284.554C129.848 284.095 130.621 283.866 131.485 283.866C132.349 283.866 133.117 284.095 133.789 284.554C134.472 285.013 135.005 285.674 135.389 286.538C135.773 287.391 135.965 288.399 135.965 289.562C135.965 290.725 135.773 291.738 135.389 292.602C135.005 293.455 134.472 294.111 133.789 294.57C133.117 295.029 132.349 295.258 131.485 295.258ZM131.485 294.202C132.136 294.202 132.706 294.021 133.197 293.658C133.698 293.295 134.088 292.767 134.365 292.074C134.642 291.381 134.781 290.543 134.781 289.562C134.781 288.581 134.642 287.743 134.365 287.05C134.088 286.357 133.698 285.829 133.197 285.466C132.706 285.103 132.136 284.922 131.485 284.922C130.834 284.922 130.258 285.103 129.757 285.466C129.266 285.829 128.882 286.357 128.605 287.05C128.328 287.743 128.189 288.581 128.189 289.562C128.189 290.543 128.328 291.381 128.605 292.074C128.882 292.767 129.266 293.295 129.757 293.658C130.259 294.021 130.865 294.212 131.485 294.202V294.202ZM140.768 283.962V295.162H139.616V284.986H136.976V283.962H140.768V283.962ZM147.013 283.866C148.496 283.866 149.632 284.357 150.421 285.338C151.21 286.309 151.605 287.685 151.605 289.466C151.605 290.714 151.392 291.77 150.965 292.634C150.538 293.498 149.941 294.154 149.173 294.602C148.405 295.039 147.509 295.258 146.485 295.258C145.376 295.258 144.49 295.055 143.829 294.65L144.293 293.722C144.826 294.074 145.552 294.25 146.469 294.25C147.706 294.25 148.677 293.861 149.381 293.082C150.085 292.293 150.437 291.151 150.437 289.658C150.437 289.381 150.421 289.077 150.389 288.746C150.113 289.353 149.647 289.853 149.061 290.17C148.453 290.501 147.754 290.666 146.965 290.666C146.229 290.666 145.573 290.527 144.997 290.25C144.454 289.992 143.994 289.588 143.669 289.082C143.349 288.57 143.189 287.978 143.189 287.306C143.189 286.623 143.354 286.021 143.685 285.498C144.014 284.976 144.486 284.56 145.045 284.298C145.632 284.01 146.288 283.866 147.013 283.866V283.866ZM147.141 289.69C147.706 289.69 148.202 289.583 148.629 289.37C149.044 289.176 149.398 288.871 149.653 288.49C149.898 288.117 150.021 287.701 150.021 287.242C150.021 286.815 149.904 286.421 149.669 286.058C149.445 285.695 149.109 285.402 148.661 285.178C148.213 284.954 147.68 284.842 147.061 284.842C146.25 284.842 145.589 285.066 145.077 285.514C144.576 285.951 144.325 286.538 144.325 287.274C144.325 288.01 144.576 288.597 145.077 289.034C145.589 289.471 146.277 289.69 147.141 289.69V289.69ZM237.654 294.138V295.162H229.798V294.346L234.454 289.786C235.04 289.21 235.435 288.714 235.638 288.298C235.851 287.871 235.958 287.445 235.958 287.018C235.958 286.357 235.728 285.845 235.27 285.482C234.822 285.109 234.176 284.922 233.334 284.922C232.022 284.922 231.003 285.338 230.278 286.17L229.462 285.466C229.914 284.943 230.484 284.537 231.126 284.282C231.808 284.005 232.576 283.866 233.43 283.866C234.571 283.866 235.472 284.138 236.134 284.682C236.806 285.215 237.142 285.951 237.142 286.89C237.142 287.467 237.011 288.036 236.758 288.554C236.502 289.087 236.016 289.701 235.302 290.394L231.494 294.138H237.654V294.138ZM243.581 295.258C242.717 295.258 241.944 295.029 241.261 294.57C240.589 294.111 240.061 293.455 239.677 292.602C239.304 291.738 239.117 290.725 239.117 289.562C239.117 288.399 239.304 287.391 239.677 286.538C240.061 285.674 240.589 285.013 241.261 284.554C241.944 284.095 242.717 283.866 243.581 283.866C244.445 283.866 245.213 284.095 245.885 284.554C246.568 285.013 247.101 285.674 247.485 286.538C247.869 287.391 248.061 288.399 248.061 289.562C248.061 290.725 247.869 291.738 247.485 292.602C247.101 293.455 246.568 294.111 245.885 294.57C245.213 295.029 244.445 295.258 243.581 295.258ZM243.581 294.202C244.232 294.202 244.802 294.021 245.293 293.658C245.794 293.295 246.184 292.767 246.461 292.074C246.738 291.381 246.877 290.543 246.877 289.562C246.877 288.581 246.738 287.743 246.461 287.05C246.184 286.357 245.794 285.829 245.293 285.466C244.802 285.103 244.232 284.922 243.581 284.922C242.93 284.922 242.354 285.103 241.853 285.466C241.362 285.829 240.978 286.357 240.701 287.05C240.424 287.743 240.285 288.581 240.285 289.562C240.285 290.543 240.424 291.381 240.701 292.074C240.978 292.767 241.362 293.295 241.853 293.658C242.355 294.021 242.961 294.212 243.581 294.202V294.202ZM257.407 294.138V295.162H249.551V294.346L254.207 289.786C254.794 289.21 255.189 288.714 255.391 288.298C255.605 287.871 255.711 287.445 255.711 287.018C255.711 286.357 255.482 285.845 255.023 285.482C254.575 285.109 253.93 284.922 253.087 284.922C251.775 284.922 250.757 285.338 250.031 286.17L249.215 285.466C249.667 284.944 250.237 284.538 250.879 284.282C251.562 284.005 252.33 283.866 253.183 283.866C254.325 283.866 255.226 284.138 255.887 284.682C256.559 285.215 256.895 285.951 256.895 286.89C256.895 287.467 256.764 288.036 256.511 288.554C256.255 289.087 255.77 289.701 255.055 290.394L251.247 294.138H257.407ZM263.335 295.258C262.471 295.258 261.697 295.029 261.015 294.57C260.343 294.111 259.815 293.455 259.431 292.602C259.057 291.738 258.871 290.725 258.871 289.562C258.871 288.399 259.057 287.391 259.431 286.538C259.815 285.674 260.343 285.013 261.015 284.554C261.697 284.095 262.471 283.866 263.335 283.866C264.199 283.866 264.967 284.095 265.639 284.554C266.321 285.013 266.855 285.674 267.239 286.538C267.623 287.391 267.815 288.399 267.815 289.562C267.815 290.725 267.623 291.738 267.239 292.602C266.855 293.455 266.321 294.111 265.639 294.57C264.967 295.029 264.199 295.258 263.335 295.258ZM263.335 294.202C263.985 294.202 264.556 294.021 265.047 293.658C265.548 293.295 265.937 292.767 266.215 292.074C266.492 291.381 266.631 290.543 266.631 289.562C266.631 288.581 266.492 287.743 266.215 287.05C265.937 286.357 265.548 285.829 265.047 285.466C264.556 285.103 263.985 284.922 263.335 284.922C262.684 284.922 262.108 285.103 261.607 285.466C261.116 285.829 260.732 286.357 260.455 287.05C260.177 287.743 260.039 288.581 260.039 289.562C260.039 290.543 260.177 291.381 260.455 292.074C260.732 292.767 261.116 293.295 261.607 293.658C262.109 294.021 262.715 294.212 263.335 294.202V294.202ZM353.486 294.138V295.162H345.63V294.346L350.286 289.786C350.873 289.21 351.267 288.714 351.47 288.298C351.683 287.871 351.79 287.445 351.79 287.018C351.79 286.357 351.561 285.845 351.102 285.482C350.654 285.109 350.009 284.922 349.166 284.922C347.854 284.922 346.835 285.338 346.11 286.17L345.294 285.466C345.746 284.943 346.316 284.537 346.958 284.282C347.641 284.005 348.409 283.866 349.262 283.866C350.403 283.866 351.305 284.138 351.966 284.682C352.638 285.215 352.974 285.951 352.974 286.89C352.974 287.467 352.843 288.036 352.59 288.554C352.334 289.087 351.849 289.701 351.134 290.394L347.326 294.138H353.486V294.138ZM359.413 295.258C358.549 295.258 357.776 295.029 357.093 294.57C356.421 294.111 355.893 293.455 355.509 292.602C355.136 291.738 354.949 290.725 354.949 289.562C354.949 288.399 355.136 287.391 355.509 286.538C355.893 285.674 356.421 285.013 357.093 284.554C357.776 284.095 358.549 283.866 359.413 283.866C360.277 283.866 361.045 284.095 361.717 284.554C362.4 285.013 362.933 285.674 363.317 286.538C363.701 287.391 363.893 288.399 363.893 289.562C363.893 290.725 363.701 291.738 363.317 292.602C362.933 293.455 362.4 294.111 361.717 294.57C361.045 295.029 360.277 295.258 359.413 295.258ZM359.413 294.202C360.064 294.202 360.635 294.021 361.125 293.658C361.627 293.295 362.016 292.767 362.293 292.074C362.571 291.381 362.709 290.543 362.709 289.562C362.709 288.581 362.571 287.743 362.293 287.05C362.016 286.357 361.627 285.829 361.125 285.466C360.635 285.103 360.064 284.922 359.413 284.922C358.763 284.922 358.187 285.103 357.685 285.466C357.195 285.829 356.811 286.357 356.533 287.05C356.256 287.743 356.117 288.581 356.117 289.562C356.117 290.543 356.256 291.381 356.533 292.074C356.811 292.767 357.195 293.295 357.685 293.658C358.187 294.021 358.793 294.212 359.413 294.202ZM373.24 294.138V295.162H365.384V294.346L370.04 289.786C370.626 289.21 371.021 288.714 371.224 288.298C371.437 287.871 371.544 287.445 371.544 287.018C371.544 286.357 371.314 285.845 370.856 285.482C370.408 285.109 369.762 284.922 368.92 284.922C367.608 284.922 366.589 285.338 365.864 286.17L365.048 285.466C365.5 284.943 366.07 284.537 366.712 284.282C367.394 284.005 368.162 283.866 369.016 283.866C370.157 283.866 371.058 284.138 371.72 284.682C372.392 285.215 372.728 285.951 372.728 286.89C372.728 287.467 372.597 288.036 372.344 288.554C372.088 289.087 371.602 289.701 370.888 290.394L367.08 294.138H373.24V294.138ZM377.869 283.962V295.162H376.717V284.986H374.077V283.962H377.869Z" fill="white"/>
<path d="M464.205 295V293.977L468.045 289.773C468.496 289.28 468.867 288.852 469.159 288.489C469.451 288.121 469.667 287.777 469.807 287.455C469.951 287.129 470.023 286.788 470.023 286.432C470.023 286.023 469.924 285.669 469.727 285.369C469.534 285.07 469.269 284.839 468.932 284.676C468.595 284.513 468.216 284.432 467.795 284.432C467.348 284.432 466.958 284.525 466.625 284.71C466.295 284.892 466.04 285.148 465.858 285.477C465.68 285.807 465.591 286.193 465.591 286.636H464.25C464.25 285.955 464.407 285.356 464.722 284.841C465.036 284.326 465.464 283.924 466.006 283.636C466.551 283.348 467.163 283.205 467.841 283.205C468.523 283.205 469.127 283.348 469.653 283.636C470.18 283.924 470.593 284.312 470.892 284.801C471.191 285.29 471.341 285.833 471.341 286.432C471.341 286.86 471.263 287.278 471.108 287.688C470.956 288.093 470.691 288.545 470.312 289.045C469.938 289.542 469.417 290.148 468.75 290.864L466.136 293.659V293.75H471.545V295H464.205ZM477.688 295.159C476.831 295.159 476.102 294.926 475.5 294.46C474.898 293.991 474.438 293.311 474.119 292.42C473.801 291.527 473.642 290.447 473.642 289.182C473.642 287.924 473.801 286.85 474.119 285.96C474.441 285.066 474.903 284.384 475.506 283.915C476.112 283.441 476.839 283.205 477.688 283.205C478.536 283.205 479.261 283.441 479.864 283.915C480.47 284.384 480.932 285.066 481.25 285.96C481.572 286.85 481.733 287.924 481.733 289.182C481.733 290.447 481.574 291.527 481.256 292.42C480.938 293.311 480.477 293.991 479.875 294.46C479.273 294.926 478.544 295.159 477.688 295.159ZM477.688 293.909C478.536 293.909 479.195 293.5 479.665 292.682C480.134 291.864 480.369 290.697 480.369 289.182C480.369 288.174 480.261 287.316 480.045 286.608C479.833 285.9 479.527 285.36 479.125 284.989C478.727 284.617 478.248 284.432 477.688 284.432C476.847 284.432 476.189 284.847 475.716 285.676C475.242 286.502 475.006 287.67 475.006 289.182C475.006 290.189 475.112 291.045 475.324 291.75C475.536 292.455 475.841 292.991 476.239 293.358C476.64 293.725 477.123 293.909 477.688 293.909ZM483.892 295V293.977L487.733 289.773C488.184 289.28 488.555 288.852 488.847 288.489C489.138 288.121 489.354 287.777 489.494 287.455C489.638 287.129 489.71 286.788 489.71 286.432C489.71 286.023 489.612 285.669 489.415 285.369C489.222 285.07 488.956 284.839 488.619 284.676C488.282 284.513 487.903 284.432 487.483 284.432C487.036 284.432 486.646 284.525 486.312 284.71C485.983 284.892 485.727 285.148 485.545 285.477C485.367 285.807 485.278 286.193 485.278 286.636H483.938C483.938 285.955 484.095 285.356 484.409 284.841C484.723 284.326 485.152 283.924 485.693 283.636C486.239 283.348 486.85 283.205 487.528 283.205C488.21 283.205 488.814 283.348 489.341 283.636C489.867 283.924 490.28 284.312 490.58 284.801C490.879 285.29 491.028 285.833 491.028 286.432C491.028 286.86 490.951 287.278 490.795 287.688C490.644 288.093 490.379 288.545 490 289.045C489.625 289.542 489.104 290.148 488.438 290.864L485.824 293.659V293.75H491.233V295H483.892ZM493.58 295V293.977L497.42 289.773C497.871 289.28 498.242 288.852 498.534 288.489C498.826 288.121 499.042 287.777 499.182 287.455C499.326 287.129 499.398 286.788 499.398 286.432C499.398 286.023 499.299 285.669 499.102 285.369C498.909 285.07 498.644 284.839 498.307 284.676C497.97 284.513 497.591 284.432 497.17 284.432C496.723 284.432 496.333 284.525 496 284.71C495.67 284.892 495.415 285.148 495.233 285.477C495.055 285.807 494.966 286.193 494.966 286.636H493.625C493.625 285.955 493.782 285.356 494.097 284.841C494.411 284.326 494.839 283.924 495.381 283.636C495.926 283.348 496.538 283.205 497.216 283.205C497.898 283.205 498.502 283.348 499.028 283.636C499.555 283.924 499.968 284.312 500.267 284.801C500.566 285.29 500.716 285.833 500.716 286.432C500.716 286.86 500.638 287.278 500.483 287.688C500.331 288.093 500.066 288.545 499.688 289.045C499.312 289.542 498.792 290.148 498.125 290.864L495.511 293.659V293.75H500.92V295H493.58Z" fill="white"/>
<path d="M129.222 114.253L19 121.686V254H483V31L427.889 56.2735L313.223 80.8024L265.222 100.13H193.222L129.222 114.253V114.253Z" fill="url(#paint0_linear_1_15)"/>
<path d="M19 120L129.222 112.869L193.222 99.3198H265.222L313.223 80.7782L427.889 57.2452L483 33" stroke="#A8A8A8" stroke-width="3"/>
<path d="M545 255.268H0M17.4106 11V267" stroke="white" stroke-width="4"/>
<path d="M296.684 155.798H293.552V158.858H291.23V155.798H288.116V153.602H291.23V150.542H293.552V153.602H296.684V155.798ZM303.041 148.4V161H300.125V150.74H297.605V148.4H303.041ZM315.184 148.4V150.29L310.504 161H307.336L311.854 150.776H307.678V152.828H305.086V148.4H315.184ZM319.593 155.204C318.669 155.204 317.913 154.892 317.325 154.268C316.749 153.632 316.461 152.786 316.461 151.73C316.461 150.674 316.749 149.834 317.325 149.21C317.913 148.574 318.669 148.256 319.593 148.256C320.517 148.256 321.267 148.574 321.843 149.21C322.419 149.834 322.707 150.674 322.707 151.73C322.707 152.786 322.419 153.632 321.843 154.268C321.267 154.892 320.517 155.204 319.593 155.204ZM327.099 148.4H329.241L320.637 161H318.495L327.099 148.4ZM319.593 153.728C320.001 153.728 320.319 153.56 320.547 153.224C320.787 152.888 320.907 152.39 320.907 151.73C320.907 151.07 320.787 150.572 320.547 150.236C320.445 150.076 320.304 149.946 320.137 149.858C319.969 149.769 319.782 149.726 319.593 149.732C319.197 149.732 318.879 149.906 318.639 150.254C318.399 150.59 318.279 151.082 318.279 151.73C318.279 152.378 318.399 152.876 318.639 153.224C318.879 153.56 319.197 153.728 319.593 153.728ZM328.143 161.144C327.543 161.144 327.003 161.006 326.523 160.73C326.048 160.435 325.667 160.01 325.425 159.506C325.161 158.978 325.029 158.366 325.029 157.67C325.029 156.974 325.161 156.362 325.425 155.834C325.689 155.306 326.055 154.904 326.523 154.628C327.013 154.337 327.573 154.188 328.143 154.196C329.067 154.196 329.817 154.514 330.393 155.15C330.981 155.774 331.275 156.614 331.275 157.67C331.275 158.726 330.981 159.572 330.393 160.208C329.817 160.832 329.067 161.144 328.143 161.144V161.144ZM328.143 159.668C328.551 159.668 328.869 159.5 329.097 159.164C329.337 158.816 329.457 158.318 329.457 157.67C329.457 157.022 329.337 156.53 329.097 156.194C328.869 155.846 328.551 155.672 328.143 155.672C327.747 155.672 327.429 155.84 327.189 156.176C326.949 156.512 326.829 157.01 326.829 157.67C326.829 158.33 326.949 158.828 327.189 159.164C327.429 159.5 327.747 159.668 328.143 159.668Z" fill="white"/>
<path d="M138 279.162V253.006" stroke="white" stroke-width="3"/>
<path d="M137.754 279.162V102.3" stroke="white"/>
<path d="M367.172 279.162V253.006" stroke="white" stroke-width="3"/>
<path d="M366.926 279.162V51.234" stroke="white"/>
<path d="M366.926 279.162L367 31" stroke="white"/>
<path d="M483 270.928V0" stroke="white"/>
<path d="M252.582 279.162V253.006" stroke="white" stroke-width="3"/>
<path d="M483 279.162V253.006" stroke="white" stroke-width="3"/>
<path d="M252.336 279.162V82.372" stroke="white"/>
<path d="M3 24.6752L16.8976 11L29.1596 24.6752M527.015 245.108L545 255.676L527.015 265" stroke="white" stroke-width="4"/>
<path d="M405.697 124.116V115.568H407.858V124.116H405.697ZM402.503 120.923V118.762H411.051V120.923H402.503ZM413.208 126V124.116L417.609 120.042C417.983 119.679 418.297 119.353 418.551 119.064C418.808 118.774 419.004 118.49 419.136 118.212C419.269 117.931 419.336 117.627 419.336 117.301C419.336 116.939 419.253 116.627 419.088 116.365C418.923 116.099 418.698 115.896 418.412 115.755C418.126 115.61 417.802 115.538 417.44 115.538C417.062 115.538 416.732 115.614 416.45 115.767C416.168 115.92 415.951 116.14 415.798 116.425C415.645 116.711 415.569 117.051 415.569 117.446H413.087C413.087 116.637 413.271 115.934 413.637 115.339C414.003 114.743 414.516 114.282 415.176 113.956C415.836 113.63 416.597 113.467 417.458 113.467C418.344 113.467 419.114 113.624 419.77 113.938C420.43 114.248 420.944 114.679 421.31 115.23C421.676 115.781 421.859 116.413 421.859 117.126C421.859 117.593 421.767 118.053 421.581 118.508C421.4 118.963 421.076 119.468 420.609 120.023C420.143 120.575 419.485 121.237 418.635 122.01L416.83 123.778V123.863H422.022V126H413.208ZM423.463 123.827V121.768L428.625 113.636H430.4V116.486H429.349L426.096 121.635V121.732H433.43V123.827H423.463ZM429.398 126V123.199L429.446 122.287V113.636H431.897V126H429.398ZM441.939 123.682V123.03C441.939 122.535 442.044 122.08 442.253 121.665C442.467 121.247 442.775 120.913 443.177 120.663C443.584 120.41 444.079 120.283 444.662 120.283C445.254 120.283 445.751 120.408 446.153 120.657C446.56 120.907 446.866 121.241 447.071 121.659C447.28 122.074 447.385 122.531 447.385 123.03V123.682C447.385 124.177 447.28 124.634 447.071 125.052C446.862 125.467 446.554 125.799 446.147 126.048C445.741 126.302 445.246 126.429 444.662 126.429C444.07 126.429 443.573 126.302 443.171 126.048C442.769 125.799 442.463 125.467 442.253 125.052C442.044 124.634 441.939 124.177 441.939 123.682ZM443.696 123.03V123.682C443.696 123.968 443.765 124.237 443.901 124.491C444.042 124.744 444.296 124.871 444.662 124.871C445.028 124.871 445.278 124.746 445.411 124.497C445.548 124.247 445.616 123.976 445.616 123.682V123.03C445.616 122.736 445.552 122.462 445.423 122.209C445.294 121.955 445.04 121.828 444.662 121.828C444.3 121.828 444.048 121.955 443.907 122.209C443.767 122.462 443.696 122.736 443.696 123.03ZM435.595 116.607V115.955C435.595 115.455 435.701 114.999 435.915 114.584C436.128 114.166 436.436 113.832 436.838 113.582C437.245 113.333 437.736 113.208 438.311 113.208C438.907 113.208 439.406 113.333 439.808 113.582C440.211 113.832 440.517 114.166 440.726 114.584C440.935 114.999 441.04 115.455 441.04 115.955V116.607C441.04 117.106 440.933 117.562 440.72 117.977C440.511 118.391 440.203 118.723 439.796 118.973C439.394 119.219 438.899 119.341 438.311 119.341C437.724 119.341 437.227 119.217 436.82 118.967C436.418 118.713 436.112 118.381 435.903 117.971C435.697 117.556 435.595 117.102 435.595 116.607ZM437.363 115.955V116.607C437.363 116.9 437.432 117.172 437.569 117.422C437.71 117.671 437.957 117.796 438.311 117.796C438.682 117.796 438.933 117.671 439.066 117.422C439.203 117.172 439.271 116.9 439.271 116.607V115.955C439.271 115.661 439.207 115.387 439.078 115.134C438.949 114.88 438.694 114.753 438.311 114.753C437.953 114.753 437.706 114.882 437.569 115.14C437.432 115.397 437.363 115.669 437.363 115.955ZM436.392 126L444.892 113.636H446.473L437.973 126H436.392Z" fill="white"/>
<defs>
<linearGradient id="paint0_linear_1_15" x1="251" y1="31" x2="251" y2="254" gradientUnits="userSpaceOnUse">
<stop stop-color="#E30F13"/>
<stop offset="1" stop-color="#E30F13" stop-opacity="0.19"/>
</linearGradient>
</defs>
</svg>
