<svg width="62" height="62" viewBox="0 0 62 62" fill="none" xmlns="http://www.w3.org/2000/svg">
<g clip-path="url(#clip0_693_23)">
<path d="M42.054 20.689C41.9454 20.7467 29.8795 28.1619 24.006 31.7943C23.1214 32.3414 22.8006 33.0284 23.0619 33.9867C23.6619 36.1825 24.3185 38.3628 24.9429 40.5521C25.0288 40.8532 25.1131 41.1488 25.4823 41.1539C25.9411 41.1598 25.9621 40.7612 26.0091 40.457C26.1633 39.4589 26.3298 38.4594 26.4064 37.454C26.4385 36.9653 26.5673 36.4877 26.7851 36.049C27.003 35.6103 27.3057 35.2191 27.6757 34.8981C31.6806 31.1984 41.4095 22.1471 42.277 21.3298C42.5617 21.0621 42.5388 20.6422 42.054 20.689Z" fill="#545478"/>
<path d="M57.0909 -4H4.90909C2.54625 -4 0.280191 -3.06137 -1.39059 -1.39059C-3.06137 0.280191 -4 2.54625 -4 4.90909V57.0909C-4 59.4537 -3.06137 61.7198 -1.39059 63.3906C0.280191 65.0614 2.54625 66 4.90909 66H57.0909C59.4537 66 61.7198 65.0614 63.3906 63.3906C65.0614 61.7198 66 59.4537 66 57.0909V4.90909C66 2.54625 65.0614 0.280191 63.3906 -1.39059C61.7198 -3.06137 59.4537 -4 57.0909 -4ZM46.0772 49.3021C45.759 50.8329 44.938 51.1643 43.6603 50.2366C40.4546 47.9092 37.2502 45.5804 34.0469 43.25C32.6997 42.2705 32.1485 42.3023 30.8387 43.3846C29.2314 44.7129 27.616 46.0313 25.9923 47.3399C24.6852 48.3907 23.9192 48.1513 23.4276 46.571C22.2182 42.6808 20.9906 38.7955 19.8159 34.8955C19.6299 34.2784 19.3259 33.953 18.7381 33.7407C15.7553 32.6623 12.7843 31.5522 9.80893 30.4532C9.2203 30.2352 8.64073 30.0007 8.2562 29.4619C8.2562 28.498 8.53955 28.0382 9.4653 27.6823C23.5263 22.2761 37.584 16.8617 51.6384 11.4391C52.573 11.0778 53.2438 11.1956 53.7451 12.0755C53.7444 12.3445 48.2758 38.7519 46.0772 49.3021Z" fill="#545478"/>
</g>
<defs>
<clipPath id="clip0_693_23">
<rect width="62" height="62" fill="white"/>
</clipPath>
</defs>
</svg>
