<svg width="62" height="62" viewBox="0 0 62 62" fill="none" xmlns="http://www.w3.org/2000/svg">
<g clip-path="url(#clip0_693_29)">
<path d="M58.4545 -4H7.54545C5.01384 -4 2.58592 -2.99432 0.795799 -1.2042C-0.994321 0.585919 -2 3.01384 -2 5.54545L-2 56.4545C-2 58.9862 -0.994321 61.4141 0.795799 63.2042C2.58592 64.9943 5.01384 66 7.54545 66H58.4545C60.9862 66 63.4141 64.9943 65.2042 63.2042C66.9943 61.4141 68 58.9862 68 56.4545V5.54545C68 3.01384 66.9943 0.585919 65.2042 -1.2042C63.4141 -2.99432 60.9862 -4 58.4545 -4ZM46.654 32.3523L20.2727 44.9205C20.1117 44.9997 19.933 45.0365 19.7538 45.0274C19.5745 45.0183 19.4005 44.9635 19.2483 44.8683C19.0962 44.7731 18.9708 44.6406 18.8842 44.4834C18.7976 44.3261 18.7526 44.1494 18.7534 43.9699V18.0222C18.756 17.8441 18.8034 17.6696 18.8911 17.5147C18.9788 17.3598 19.1041 17.2294 19.2554 17.1355C19.4067 17.0416 19.5791 16.9873 19.7569 16.9775C19.9347 16.9678 20.1121 17.0028 20.2727 17.0795L46.6699 30.4591C46.8439 30.5494 46.9894 30.6861 47.0905 30.854C47.1916 31.0219 47.2442 31.2146 47.2426 31.4106C47.2409 31.6066 47.1851 31.7983 47.0812 31.9645C46.9773 32.1307 46.8294 32.2649 46.654 32.3523Z" fill="#545478"/>
</g>
<defs>
<clipPath id="clip0_693_29">
<rect width="62" height="62" fill="white"/>
</clipPath>
</defs>
</svg>
