<svg width="62" height="63" viewBox="0 0 62 63" fill="none" xmlns="http://www.w3.org/2000/svg">
<path d="M0 0.470703V62.4707H62V0.470703H0ZM49.703 34.873C51.1988 36.416 52.8002 37.8597 54.2488 39.4448C55.3015 40.598 56.2759 41.8493 57.1101 43.1663C58.1653 44.8322 57.5135 46.4012 55.5423 46.6806C54.3023 46.8556 48.2447 46.682 47.9317 46.6806C46.3031 46.6733 44.8756 46.1083 43.726 45.0024C42.4475 43.7709 41.2855 42.4204 40.0578 41.1356C39.6879 40.7482 39.2931 40.3771 38.8674 40.053C37.8631 39.2871 36.8775 39.4572 36.4083 40.6365C36.0073 41.6495 35.661 44.3098 35.6448 44.5368C35.5604 45.7248 34.8044 46.482 33.4736 46.5552C29.6317 46.7637 25.9089 46.3355 22.4407 44.4772C19.5011 42.9032 17.1538 40.6775 15.1205 38.0819C11.8905 33.9592 9.33923 29.4274 7.01 24.7625C6.89096 24.524 4.5318 19.504 4.4684 19.2668C4.25767 18.4729 4.45426 17.7144 5.12509 17.4534C5.5433 17.2905 13.3215 17.4528 13.4509 17.4598C14.6921 17.5268 15.5385 18.0505 16.0612 19.3388C17.5471 23.0082 19.4302 26.4678 21.9105 29.5736C22.2394 29.9871 22.6541 30.3544 23.0909 30.6535C23.729 31.0917 24.331 30.9377 24.5904 30.2079C24.8648 29.4419 25.1167 27.8897 25.1316 27.0854C25.1726 24.9837 25.1255 23.6064 25.0126 21.5074C24.9394 20.163 24.4615 18.9825 22.4839 18.6262C21.8732 18.5157 21.8165 18.013 22.2088 17.5116C23.0256 16.4676 24.1635 16.3012 25.3975 16.2353C27.3973 16.1273 29.4045 16.2155 31.4068 16.2353C32.2224 16.2428 33.0429 16.3085 33.8461 16.4836C34.8938 16.712 35.4549 17.447 35.6275 18.4698C35.7169 18.9973 35.7629 19.5397 35.7504 20.0736C35.6983 22.3676 35.5878 24.6603 35.5617 26.9531C35.5505 27.8531 35.6162 28.7754 35.8087 29.6518C36.0781 30.8734 36.9097 31.1799 37.7602 30.2974C38.8401 29.1764 39.7923 27.9152 40.6859 26.6342C42.3096 24.3042 43.5223 21.7471 44.5664 19.1105C45.1063 17.7501 45.5198 17.4546 46.9832 17.4509C49.734 17.4447 52.4849 17.4422 55.2357 17.4509C55.7236 17.4534 56.2337 17.4993 56.6942 17.6457C57.4415 17.8841 57.7383 18.4936 57.5632 19.267C57.1548 21.0794 56.1754 22.6198 55.1265 24.1008C53.4432 26.4767 51.6792 28.7956 49.9563 31.1441C49.7366 31.4433 49.543 31.7623 49.3629 32.0864C48.7187 33.2505 48.7634 33.9034 49.703 34.873Z" fill="#545478"/>
</svg>
