<svg xmlns="http://www.w3.org/2000/svg" width="52" height="43" fill="none"><path fill-rule="evenodd" clip-rule="evenodd" d="M30.343 36.287h6.048v3.023h-6.048v-3.023zm-27.318 0h15.12v3.023H3.025v-3.023zM21.17 30.24h27.419v3.024h-27.42V30.24zM3.025 9.072h15.12v24.191H3.025V9.072zm18.145 0h27.419v18.143h-27.42V9.072zM3.025 3.024h15.12v3.024H3.025V3.024zM0 42.334h21.17v-6.047h6.148v3.023h-3.024v3.025h18.145V39.31h-3.023v-3.023h12.196V6.047H21.17V0H0v42.335z" fill="#E32124"/><path fill-rule="evenodd" clip-rule="evenodd" d="M6.05 15.12h9.07v-3.025H6.05v3.024zm3.023 15.119h3.024v-3.023H9.073v3.023z" fill="#E32124"/></svg>